HIERARCHY
ROOT Hips
{
	OFFSET 0.000000 8.830580 0.000000
	CHANNELS 6 Xposition Yposition Zposition Zrotation Yrotation Xrotation 
	JOINT Spine
	{
		OFFSET 0.000000 0.010000 0.000000
		CHANNELS 3 Zrotation Yrotation Xrotation
		JOINT Spine1
		{
			OFFSET 0.000000 2.459130 0.000000
			CHANNELS 3 Zrotation Yrotation Xrotation
			JOINT Neck
			{
				OFFSET 0.000000 2.484630 0.000000
				CHANNELS 3 Zrotation Yrotation Xrotation
				JOINT Head_virtual
				{
					OFFSET 0.000000 0.000000 0.000000
					CHANNELS 3 Zrotation Yrotation Xrotation
					JOINT Head
					{
						OFFSET 0.000000 0.927525 0.000000
						CHANNELS 3 Zrotation Yrotation Xrotation
						End Site
						{
							OFFSET 0.000000 0.000000 0.000000
						}
					}
				}
				JOINT LeftUpArm_virtual
				{
					OFFSET 0.000000 0.000000 0.000000
					CHANNELS 3 Zrotation Yrotation Xrotation
					JOINT LeftUpArm
					{
						OFFSET 1.248820 0.000000 0.000000
						CHANNELS 3 Zrotation Yrotation Xrotation
						JOINT LeftForeArm
						{
							OFFSET 2.597580 0.000000 0.000000
							CHANNELS 3 Zrotation Yrotation Xrotation
							JOINT LeftHand
							{
								OFFSET 2.455420 0.000000 0.000000
								CHANNELS 3 Zrotation Yrotation Xrotation
								End Site
								{
									OFFSET 0.000000 0.000000 0.000000
								}
							}
						}
					}
				}
				JOINT RightUpArm_virtual
				{
					OFFSET -0.000000 -0.000000 -0.000000
					CHANNELS 3 Zrotation Yrotation Xrotation
					JOINT RightUpArm
					{
						OFFSET -1.248820 -0.000000 -0.000000
						CHANNELS 3 Zrotation Yrotation Xrotation
						JOINT RightForeArm
						{
							OFFSET -2.597580 -0.000000 -0.000000
							CHANNELS 3 Zrotation Yrotation Xrotation
							JOINT RightHand
							{
								OFFSET -2.455420 -0.000000 -0.000000
								CHANNELS 3 Zrotation Yrotation Xrotation
								End Site
								{
									OFFSET 0.000000 0.000000 0.000000
								}
							}
						}
					}
				}
			}
		}
	}
	JOINT LeftUpLeg
	{
		OFFSET 1.271939 0.000000 0.000000
		CHANNELS 3 Zrotation Yrotation Xrotation
		JOINT LeftLowLeg
		{
			OFFSET 0.000000 -4.342910 0.000000
			CHANNELS 3 Zrotation Yrotation Xrotation
			JOINT LeftFoot
			{
				OFFSET 0.000000 -4.487670 0.000000
				CHANNELS 3 Zrotation Yrotation Xrotation
				JOINT LeftToeBase
				{
					OFFSET 0.000000 0.000000 1.515070
					CHANNELS 3 Zrotation Yrotation Xrotation
					End Site
					{
						OFFSET 0.000000 0.000000 0.000000
					}
				}
			}
		}
	}
	JOINT RightUpLeg
	{
		OFFSET -1.271939 0.000000 0.000000
		CHANNELS 3 Zrotation Yrotation Xrotation
		JOINT RightLowLeg
		{
			OFFSET 0.000000 -4.342910 0.000000
			CHANNELS 3 Zrotation Yrotation Xrotation
			JOINT RightFoot
			{
				OFFSET 0.000000 -4.487670 0.000000
				CHANNELS 3 Zrotation Yrotation Xrotation
				JOINT RightToeBase
				{
					OFFSET 0.000000 0.000000 1.515070
					CHANNELS 3 Zrotation Yrotation Xrotation
					End Site
					{
						OFFSET 0.000000 0.000000 0.000000
					}
				}
			}
		}
	}
}
MOTION
Frames: 7
Frame Time: 0.041667
-25.483691 9.235569 55.067830 -174.226688 41.763511 -178.679775 5.905183 -0.557349 -19.895482 0.711058 -1.042197 38.094730 0.000000 0.000000 0.000000 -15.081437 4.285288 5.644245 0.021422 9.789781 -51.421295 -29.827499 -0.668842 -8.478040 -33.599998 0.064669 31.598499 0.000000 -35.506500 0.000000 7.043390 7.541200 3.236930 27.064800 2.781250 -2.784070 39.645401 8.435960 8.222700 0.000000 22.522800 0.000000 -0.402837 -1.209760 -9.502150 8.974631 9.512531 0.799526 0.000000 0.000000 13.655300 -9.126241 12.853445 4.904383 0.000000 0.000000 -10.036850 11.009006 12.298875 6.016216 0.000000 0.000000 6.378650 12.033070 -24.498306 7.730875 0.000000 0.000000 -9.398450 
-25.470992 9.235852 55.025419 -174.012316 42.087103 -178.496765 5.695134 -0.975505 -20.330777 1.218501 -1.079888 37.863613 0.000000 0.000000 0.000000 -14.861592 3.846589 5.661867 0.261710 9.554107 -51.289169 -29.969101 -0.593992 -8.554310 -33.588200 -0.067901 31.833200 0.000000 -35.497101 0.000000 7.004810 7.589760 3.192020 27.038799 2.713040 -2.407450 39.375198 8.838920 8.023220 0.000000 22.583099 0.000000 -0.769204 -1.228690 -10.294900 9.337648 11.467954 2.318511 0.000000 0.000000 11.292600 -8.510746 11.240450 5.590887 0.000000 0.000000 -9.566400 11.094506 12.598476 6.255168 0.000000 0.000000 6.295580 12.071548 -24.502840 7.778047 0.000000 0.000000 -9.380320 
-25.457525 9.240260 54.975880 -174.014676 42.515619 -178.666790 5.319876 -1.407098 -20.589691 1.990782 -0.963693 37.594439 0.000000 0.000000 0.000000 -14.487706 3.049831 5.932579 0.561156 9.213913 -51.286361 -30.343300 -0.740512 -8.477130 -33.447899 -0.126030 32.153801 0.000000 -35.435902 0.000000 7.067850 7.631370 2.760790 26.772400 2.642210 -2.554870 39.361099 8.643620 7.858400 0.000000 22.664301 0.000000 -1.006300 -1.071870 -10.166400 9.576493 12.820463 3.794828 0.000000 0.000000 9.562190 -8.693871 9.761328 6.192130 0.000000 0.000000 -9.635170 11.038648 12.871767 6.750472 0.000000 0.000000 6.194310 12.104682 -24.437715 7.841924 0.000000 0.000000 -9.373560 
-25.448882 9.243620 54.933653 -174.084738 42.708928 -178.538099 4.605880 -2.368000 -20.821806 3.571456 -0.810649 36.845499 0.000000 0.000000 0.000000 -15.043040 3.070535 6.537084 1.309773 8.464195 -51.476907 -31.284100 -0.901152 -8.226480 -33.161098 -0.187745 32.287601 0.000000 -35.300201 0.000000 6.921750 7.638840 2.375370 26.172199 2.104200 -2.315600 39.332001 8.995330 7.769670 0.000000 22.610901 0.000000 -1.316070 -1.110300 -10.455300 9.537961 12.721110 4.549265 0.000000 0.000000 8.302700 -9.203425 9.411565 6.570658 0.000000 0.000000 -9.743010 10.840208 12.868518 6.822356 0.000000 0.000000 6.117290 12.119257 -24.281252 7.867522 0.000000 0.000000 -9.282470 
-25.441246 9.248216 54.893828 -174.097099 42.910153 -178.531864 4.282247 -2.854870 -21.041152 4.072224 -0.817801 36.404702 0.000000 0.000000 0.000000 -14.368885 1.970412 6.741522 1.336042 8.297509 -51.586481 -31.520599 -0.946851 -8.152970 -33.084099 -0.212576 32.230598 0.000000 -35.185200 0.000000 6.975840 7.601140 2.267460 25.894501 1.980320 -2.322270 39.622398 9.038600 7.622190 0.000000 22.547001 0.000000 -1.493020 -1.158650 -10.441400 9.738311 14.098567 5.368998 0.000000 0.000000 7.280210 -9.243853 7.989300 7.160569 0.000000 0.000000 -9.943530 10.708160 12.766666 7.027528 0.000000 0.000000 6.032780 12.122618 -24.117639 7.983120 0.000000 0.000000 -9.264620 
-25.437811 9.250796 54.853309 -174.077804 43.060151 -178.470770 4.291035 -2.923617 -21.206633 3.783606 -0.901323 35.861623 0.000000 0.000000 0.000000 -13.706250 1.203203 6.941518 1.505044 8.466345 -51.755266 -31.420300 -0.951514 -7.965270 -32.934200 -0.258954 32.014400 0.000000 -35.190800 0.000000 7.068230 7.667950 2.273240 26.031799 1.870400 -2.295190 39.898899 9.030650 7.516520 0.000000 22.500099 0.000000 -1.474720 -1.102770 -10.295300 9.904119 15.820498 6.148125 0.000000 0.000000 6.212320 -9.033499 6.589574 7.687329 0.000000 0.000000 -9.908660 10.602326 12.789812 7.142145 0.000000 0.000000 6.062560 12.167599 -24.089437 7.977138 0.000000 0.000000 -9.112420 
-25.437290 9.251377 54.813517 -173.927241 43.314299 -178.418644 4.496245 -2.746250 -21.178492 3.249617 -0.986850 35.240905 0.000000 0.000000 0.000000 -13.006665 0.475356 7.156361 1.629337 8.763287 -52.053707 -31.230101 -0.959198 -7.783230 -32.750401 -0.228857 31.731800 0.000000 -35.278301 0.000000 7.156270 7.830310 2.282910 26.336300 1.766270 -2.135530 40.108398 9.006390 7.325710 0.000000 22.560900 0.000000 -1.299840 -1.030610 -10.087500 10.129576 17.441196 7.009896 0.000000 0.000000 5.219710 -8.722963 5.565030 8.017304 0.000000 0.000000 -9.849550 10.571293 12.798110 7.299700 0.000000 0.000000 6.168350 12.225367 -23.976978 7.963525 0.000000 0.000000 -8.945430 
